<svg width="21" height="25" viewBox="0 0 21 25" fill="none" xmlns="http://www.w3.org/2000/svg">
<path d="M17.278 13.1827C17.2673 11.2162 18.1567 9.73204 19.9571 8.63898C18.9497 7.19765 17.428 6.40465 15.4187 6.24926C13.5166 6.09923 11.4377 7.35839 10.6768 7.35839C9.87309 7.35839 8.0299 6.30284 6.58321 6.30284C3.59338 6.35106 0.416016 8.6872 0.416016 13.4399C0.416016 14.8437 0.673205 16.2939 1.18758 17.7906C1.87342 19.7571 4.34887 24.5794 6.93149 24.499C8.28173 24.4669 9.23548 23.5399 10.9929 23.5399C12.6968 23.5399 13.5809 24.499 15.0865 24.499C17.6906 24.4615 19.9303 20.0786 20.584 18.1068C17.0905 16.4618 17.278 13.2845 17.278 13.1827ZM14.2453 4.38464C15.7081 2.64861 15.5741 1.06796 15.5313 0.5C14.24 0.575014 12.745 1.37873 11.8931 2.36998C10.9554 3.43089 10.4035 4.74363 10.5214 6.22247C11.9199 6.32963 13.1951 5.61164 14.2453 4.38464Z" fill="#5A5555"/>
</svg>
