<svg width="24" height="24" viewBox="0 0 24 24" fill="none" xmlns="http://www.w3.org/2000/svg">
<path d="M11 21.75C11.4142 21.75 11.75 21.4142 11.75 21C11.75 20.5858 11.4142 20.25 11 20.25V21.75ZM7.25 7C7.25 7.41421 7.58579 7.75 8 7.75C8.41421 7.75 8.75 7.41421 8.75 7H7.25ZM8.75 3C8.75 2.58579 8.41421 2.25 8 2.25C7.58579 2.25 7.25 2.58579 7.25 3H8.75ZM15.25 7C15.25 7.41421 15.5858 7.75 16 7.75C16.4142 7.75 16.75 7.41421 16.75 7H15.25ZM16.75 3C16.75 2.58579 16.4142 2.25 16 2.25C15.5858 2.25 15.25 2.58579 15.25 3H16.75ZM8.01 10.75C8.42421 10.75 8.76 10.4142 8.76 10C8.76 9.58579 8.42421 9.25 8.01 9.25V10.75ZM8 9.25C7.58579 9.25 7.25 9.58579 7.25 10C7.25 10.4142 7.58579 10.75 8 10.75V9.25ZM8.01 13.75C8.42421 13.75 8.76 13.4142 8.76 13C8.76 12.5858 8.42421 12.25 8.01 12.25V13.75ZM8 12.25C7.58579 12.25 7.25 12.5858 7.25 13C7.25 13.4142 7.58579 13.75 8 13.75V12.25ZM8.01 16.75C8.42421 16.75 8.76 16.4142 8.76 16C8.76 15.5858 8.42421 15.25 8.01 15.25V16.75ZM8 15.25C7.58579 15.25 7.25 15.5858 7.25 16C7.25 16.4142 7.58579 16.75 8 16.75V15.25ZM12.01 13.75C12.4242 13.75 12.76 13.4142 12.76 13C12.76 12.5858 12.4242 12.25 12.01 12.25V13.75ZM12 12.25C11.5858 12.25 11.25 12.5858 11.25 13C11.25 13.4142 11.5858 13.75 12 13.75V12.25ZM12.01 10.75C12.4242 10.75 12.76 10.4142 12.76 10C12.76 9.58579 12.4242 9.25 12.01 9.25V10.75ZM12 9.25C11.5858 9.25 11.25 9.58579 11.25 10C11.25 10.4142 11.5858 10.75 12 10.75V9.25ZM16.01 10.75C16.4242 10.75 16.76 10.4142 16.76 10C16.76 9.58579 16.4242 9.25 16.01 9.25V10.75ZM16 9.25C15.5858 9.25 15.25 9.58579 15.25 10C15.25 10.4142 15.5858 10.75 16 10.75V9.25ZM18.25 15.5C18.25 15.0858 17.9142 14.75 17.5 14.75C17.0858 14.75 16.75 15.0858 16.75 15.5H18.25ZM16.75 19.5C16.75 19.9142 17.0858 20.25 17.5 20.25C17.9142 20.25 18.25 19.9142 18.25 19.5H16.75ZM15.5 16.75C15.0858 16.75 14.75 17.0858 14.75 17.5C14.75 17.9142 15.0858 18.25 15.5 18.25V16.75ZM19.5 18.25C19.9142 18.25 20.25 17.9142 20.25 17.5C20.25 17.0858 19.9142 16.75 19.5 16.75V18.25ZM12.01 16.75C12.4242 16.75 12.76 16.4142 12.76 16C12.76 15.5858 12.4242 15.25 12.01 15.25V16.75ZM12 15.25C11.5858 15.25 11.25 15.5858 11.25 16C11.25 16.4142 11.5858 16.75 12 16.75V15.25ZM16.01 13.75C16.4242 13.75 16.76 13.4142 16.76 13C16.76 12.5858 16.4242 12.25 16.01 12.25V13.75ZM16 12.25C15.5858 12.25 15.25 12.5858 15.25 13C15.25 13.4142 15.5858 13.75 16 13.75V12.25ZM6 5.75H18V4.25H6V5.75ZM3.75 18V8H2.25V18H3.75ZM11 20.25H6V21.75H11V20.25ZM20.25 8V10.5H21.75V8H20.25ZM2.25 18C2.25 20.0711 3.92893 21.75 6 21.75V20.25C4.75736 20.25 3.75 19.2426 3.75 18H2.25ZM18 5.75C19.2426 5.75 20.25 6.75736 20.25 8H21.75C21.75 5.92893 20.0711 4.25 18 4.25V5.75ZM6 4.25C3.92893 4.25 2.25 5.92893 2.25 8H3.75C3.75 6.75736 4.75736 5.75 6 5.75V4.25ZM8.75 7V3H7.25V7H8.75ZM16.75 7V3H15.25V7H16.75ZM8.01 9.25H8V10.75H8.01V9.25ZM8.01 12.25H8V13.75H8.01V12.25ZM8.01 15.25H8V16.75H8.01V15.25ZM12.01 12.25H12V13.75H12.01V12.25ZM12.01 9.25H12V10.75H12.01V9.25ZM16.01 9.25H16V10.75H16.01V9.25ZM16.75 15.5V17.5H18.25V15.5H16.75ZM16.75 17.5V19.5H18.25V17.5H16.75ZM15.5 18.25H17.5V16.75H15.5V18.25ZM17.5 18.25H19.5V16.75H17.5V18.25ZM12.01 15.25H12V16.75H12.01V15.25ZM16.01 12.25H16V13.75H16.01V12.25Z" fill="#363538"/>
</svg>
