<svg width="25" height="24" viewBox="0 0 25 24" fill="none" xmlns="http://www.w3.org/2000/svg">
<path d="M8.6167 6L9.16085 4.36754C9.43308 3.55086 10.1974 3 11.0582 3H14.1752C15.036 3 15.8003 3.55086 16.0725 4.36754L16.6167 6M8.6167 6H6.23473C5.49135 6 5.00786 6.78231 5.34031 7.44721L5.82933 8.42527C6.01876 8.80413 6.12582 9.2188 6.14345 9.64201L6.4969 18.1249C6.56386 19.7318 7.88603 21 9.4943 21H15.7391C17.3474 21 18.6695 19.7318 18.7365 18.1249L19.0899 9.64202C19.1076 9.21881 19.2146 8.80413 19.4041 8.42527L19.8931 7.44721C20.2255 6.78231 19.742 6 18.9987 6H16.6167M8.6167 6H16.6167M15.0566 16.5L15.3066 10.5M10.1768 16.5L9.92676 10.5" stroke="#363538" stroke-width="1.5" stroke-linecap="round" stroke-linejoin="round"/>
</svg>
