<svg width="24" height="24" viewBox="0 0 24 24" fill="none" xmlns="http://www.w3.org/2000/svg">
<path d="M7.73221 18.6922L15.4596 20.7627C16.5266 21.0486 17.6232 20.4154 17.9091 19.3485L18.8625 15.7903M7.73221 18.6922C7.15522 18.5376 6.70509 18.1458 6.45857 17.6499C6.24924 17.2288 6.18672 16.7326 6.318 16.2427L6.79471 14.4636M7.73221 18.6922L11.2675 16.016M18.8625 15.7903L21.0149 7.75739C21.3008 6.69046 20.6677 5.59378 19.6007 5.3079L11.8733 3.23735C10.8064 2.95146 9.70971 3.58463 9.42383 4.65156L6.79471 14.4636M18.8625 15.7903L18.4534 14.9919C17.6028 13.3321 15.4599 12.8424 13.9729 13.9681L11.2675 16.016M11.2675 16.016L11.0936 15.6691C10.3584 14.2032 8.58248 13.5992 7.10609 14.313L6.79471 14.4636M11.4164 19.75L10.9164 19.876L8.54041 20.5127C7.47347 20.7986 6.3768 20.1654 6.09092 19.0985L2.98509 7.50738C2.6992 6.44044 3.33237 5.34377 4.3993 5.05788L9.91644 3.57957M13.0587 8.47258C12.9515 8.87268 12.5402 9.11012 12.1401 9.00291C11.74 8.8957 11.5026 8.48445 11.6098 8.08435C11.717 7.68425 12.1282 7.44681 12.5283 7.55402C12.9284 7.66123 13.1659 8.07248 13.0587 8.47258Z" stroke="#363538" stroke-width="1.5" stroke-linecap="round" stroke-linejoin="round"/>
</svg>
