<svg width="24" height="24" viewBox="0 0 24 24" fill="none" xmlns="http://www.w3.org/2000/svg">
<path d="M15 10.2194C15 11.8762 13.6569 13.2194 12 13.2194C10.3431 13.2194 9 11.8762 9 10.2194C9 8.56251 10.3431 7.21936 12 7.21936C13.6569 7.21936 15 8.56251 15 10.2194Z" stroke="#363538" stroke-width="1.5" stroke-linecap="round" stroke-linejoin="round"/>
<path d="M12 3.21936C8.13401 3.21936 5 6.35337 5 10.2194C5 11.9329 5.61568 13.5026 6.63789 14.7194L10.373 19.9437C11.1707 21.0595 12.8293 21.0595 13.627 19.9437L17.3621 14.7194C18.3843 13.5026 19 11.9329 19 10.2194C19 6.35337 15.866 3.21936 12 3.21936Z" stroke="#363538" stroke-width="1.5" stroke-linecap="round" stroke-linejoin="round"/>
</svg>
