<svg width="40" height="40" viewBox="0 0 40 40" fill="none" xmlns="http://www.w3.org/2000/svg">
<rect width="40" height="40" rx="10" fill="#FF5621" fill-opacity="0.05"/>
<path d="M14.3375 13.5031L13.1141 17H26.8859L25.6625 13.5031C25.4516 12.9031 24.8844 12.5 24.2469 12.5H15.7531C15.1156 12.5 14.5484 12.9031 14.3375 13.5031ZM9.85625 17.225L11.5063 12.5141C12.1391 10.7094 13.8406 9.5 15.7531 9.5H24.2469C26.1594 9.5 27.8609 10.7094 28.4938 12.5141L30.1437 17.225C31.2312 17.675 32 18.7484 32 20V26.75V29C32 29.8297 31.3297 30.5 30.5 30.5H29C28.1703 30.5 27.5 29.8297 27.5 29V26.75H12.5V29C12.5 29.8297 11.8297 30.5 11 30.5H9.5C8.67031 30.5 8 29.8297 8 29V26.75V20C8 18.7484 8.76875 17.675 9.85625 17.225ZM14 21.5C14 21.1022 13.842 20.7206 13.5607 20.4393C13.2794 20.158 12.8978 20 12.5 20C12.1022 20 11.7206 20.158 11.4393 20.4393C11.158 20.7206 11 21.1022 11 21.5C11 21.8978 11.158 22.2794 11.4393 22.5607C11.7206 22.842 12.1022 23 12.5 23C12.8978 23 13.2794 22.842 13.5607 22.5607C13.842 22.2794 14 21.8978 14 21.5ZM27.5 23C27.8978 23 28.2794 22.842 28.5607 22.5607C28.842 22.2794 29 21.8978 29 21.5C29 21.1022 28.842 20.7206 28.5607 20.4393C28.2794 20.158 27.8978 20 27.5 20C27.1022 20 26.7206 20.158 26.4393 20.4393C26.158 20.7206 26 21.1022 26 21.5C26 21.8978 26.158 22.2794 26.4393 22.5607C26.7206 22.842 27.1022 23 27.5 23Z" fill="#FF5621"/>
</svg>
