<svg width="25" height="25" viewBox="0 0 25 25" fill="none" xmlns="http://www.w3.org/2000/svg">
<path d="M10.4732 18.4265H5.91753C5.03967 18.4265 4.61389 17.3528 5.25315 16.7512C6.03171 16.0184 6.47316 14.9967 6.47316 13.9276V11.25C6.47316 7.9363 9.15945 5.25 12.4732 5.25M10.4732 18.4265V19.25C10.4732 20.3546 11.3686 21.25 12.4732 21.25C13.5777 21.25 14.4732 20.3546 14.4732 19.25V18.4265M10.4732 18.4265H14.4732M14.4732 18.4265H19.0288C19.9066 18.4265 20.3324 17.3528 19.6932 16.7512C18.9146 16.0184 18.4732 14.9967 18.4732 13.9276V11.25C18.4732 7.93629 15.7869 5.25 12.4732 5.25M12.4732 5.25V3.75" stroke="#363538" stroke-width="1.5" stroke-linecap="round" stroke-linejoin="round"/>
</svg>
