<svg width="16" height="16" viewBox="0 0 16 16" fill="none" xmlns="http://www.w3.org/2000/svg">
<path d="M7.52447 1.00723C7.67415 0.546572 8.32585 0.546571 8.47553 1.00723L9.90837 5.41706C9.97531 5.62307 10.1673 5.76255 10.3839 5.76255H15.0207C15.505 5.76255 15.7064 6.38236 15.3146 6.66706L11.5633 9.39248C11.3881 9.5198 11.3148 9.74549 11.3817 9.9515L12.8145 14.3613C12.9642 14.822 12.437 15.205 12.0451 14.9203L8.29389 12.1949C8.11865 12.0676 7.88135 12.0676 7.70611 12.1949L3.95488 14.9203C3.56303 15.205 3.03578 14.822 3.18546 14.3613L4.6183 9.9515C4.68524 9.74549 4.61191 9.5198 4.43667 9.39248L0.685441 6.66706C0.293584 6.38236 0.494972 5.76255 0.979333 5.76255H5.6161C5.83272 5.76255 6.02469 5.62307 6.09163 5.41706L7.52447 1.00723Z" fill="#FFCA41"/>
</svg>
