<svg width="25" height="24" viewBox="0 0 25 24" fill="none" xmlns="http://www.w3.org/2000/svg">
<path d="M13.4375 3H11.4375C10.3329 3 9.43751 3.89543 9.43751 5C9.43751 5.80171 8.56963 6.30278 7.87533 5.90192C6.91874 5.34964 5.69556 5.67739 5.14328 6.63397L4.14328 8.36602C3.59099 9.32261 3.91874 10.5458 4.87533 11.0981C5.56962 11.4989 5.5696 12.5011 4.8753 12.9019C3.91872 13.4542 3.59097 14.6774 4.14325 15.634L5.14325 17.366C5.69554 18.3226 6.91872 18.6504 7.8753 18.0981C8.56961 17.6972 9.43751 18.1983 9.43751 19C9.43751 20.1046 10.3329 21 11.4375 21H13.4375C14.5421 21 15.4375 20.1046 15.4375 19C15.4375 18.1983 16.3054 17.6972 16.9997 18.0981C17.9563 18.6504 19.1794 18.3226 19.7317 17.366L20.7317 15.634C21.284 14.6774 20.9563 13.4542 19.9997 12.9019C19.3054 12.5011 19.3054 11.4989 19.9997 11.0981C20.9562 10.5458 21.284 9.3226 20.7317 8.36602L19.7317 6.63397C19.1794 5.67738 17.9562 5.34963 16.9997 5.90191C16.3054 6.30276 15.4375 5.8017 15.4375 5C15.4375 3.89543 14.5421 3 13.4375 3Z" stroke="#363538" stroke-width="1.5" stroke-linecap="round" stroke-linejoin="round"/>
<path d="M14.4375 12C14.4375 13.1046 13.5421 14 12.4375 14C11.3329 14 10.4375 13.1046 10.4375 12C10.4375 10.8954 11.3329 10 12.4375 10C13.5421 10 14.4375 10.8954 14.4375 12Z" stroke="#363538" stroke-width="1.5" stroke-linecap="round" stroke-linejoin="round"/>
</svg>
